<svg xmlns="http://www.w3.org/2000/svg" width="48" height="48" viewBox="0 0 24 24" fill="none" stroke="currentColor" stroke-width="1.5" stroke-linecap="round" stroke-linejoin="round">
  <path d="M21 10V8a2 2 0 0 0-1-1.73l-7-4a2 2 0 0 0-2 0l-7 4A2 2 0 0 0 3 8v2"/>
  <path d="M21 14v2a2 2 0 0 1-2 2H5a2 2 0 0 1-2-2v-2"/>
  <path d="M3 10l9 5 9-5"/>
  <path d="M12 3.27V15"/>
  <path d="M21 10l-9 5-9-5"/>
  <path d="M3.29 7.96l8.75 5.03 8.75-5.03"/>
  <path d="M7.5 15.5l-3-1.73"/>
  <path d="M16.5 15.5l3-1.73"/>
  <line x1="12" y1="22" x2="12" y2="18"/>
</svg>